<svg width="338" height="336" viewBox="0 0 338 336" fill="none" xmlns="http://www.w3.org/2000/svg">
<path opacity="0.16" d="M19 18C19 37.6983 22.8799 57.2037 30.4181 75.4025C37.9563 93.6014 49.0052 110.137 62.934 124.066C76.8628 137.995 93.3987 149.044 111.597 156.582C129.796 164.12 149.302 168 169 168C188.698 168 208.204 164.12 226.403 156.582C244.601 149.044 261.137 137.995 275.066 124.066C288.995 110.137 300.044 93.6013 307.582 75.4025C315.12 57.2037 319 37.6983 319 18L169 18H19Z" fill="url(#paint0_linear_407_108)"/>
<path opacity="0.05" d="M316 284.5C311.429 261.472 301.525 241.225 287.968 224.327C221.699 144.747 65.6498 143.675 22.9999 284.5C67.0258 139.131 221.458 141.428 287.968 224.327C301.932 241.097 311.91 261.352 316 284.5Z" fill="white"/>
<path opacity="0.05" d="M316 51C311.429 74.0278 301.525 94.2746 287.968 111.172C221.699 190.753 65.6498 191.825 22.9999 51C67.0258 196.368 221.458 194.072 287.968 111.172C301.932 94.4033 311.91 74.1481 316 51Z" fill="white"/>
<g filter="url(#filter0_d_407_108)">
<circle cx="169" cy="168" r="28.5" stroke="white" stroke-opacity="0.73" shape-rendering="crispEdges"/>
</g>
<circle cx="214" cy="90" r="29" fill="#212121"/>
<circle cx="214" cy="90" r="28.5" stroke="white" stroke-opacity="0.14"/>
<g filter="url(#filter1_i_407_108)">
<circle cx="169" cy="168" r="25" fill="#212121"/>
</g>
<circle cx="124" cy="90" r="29" fill="#212121"/>
<circle cx="124" cy="90" r="28.5" stroke="white" stroke-opacity="0.14"/>
<circle cx="214" cy="246" r="29" fill="#212121"/>
<circle cx="214" cy="246" r="28.5" stroke="white" stroke-opacity="0.14"/>
<circle cx="124" cy="246" r="29" fill="#212121"/>
<circle cx="124" cy="246" r="28.5" stroke="white" stroke-opacity="0.14"/>
<circle cx="79" cy="168" r="29" fill="#212121"/>
<circle cx="79" cy="168" r="28.5" stroke="white" stroke-opacity="0.14"/>
<circle cx="259" cy="168" r="29" fill="#212121"/>
<circle cx="259" cy="168" r="28.5" stroke="white" stroke-opacity="0.14"/>
<g opacity="0.98" clip-path="url(#clip0_407_108)">
<path d="M89.3102 163.066C88.9697 162.951 88.6263 162.845 88.2803 162.747C88.3384 162.514 88.3919 162.283 88.4394 162.057C89.2191 158.338 88.7094 155.342 86.9683 154.356C85.2989 153.41 82.5688 154.396 79.8115 156.754C79.5398 156.987 79.2741 157.226 79.0147 157.472C78.841 157.308 78.6643 157.148 78.4845 156.991C75.5948 154.47 72.6983 153.408 70.9591 154.397C69.2912 155.346 68.7973 158.162 69.4993 161.686C69.5692 162.035 69.648 162.383 69.7358 162.728C69.3258 162.842 68.9302 162.964 68.5516 163.094C65.1636 164.254 63 166.073 63 167.959C63 169.908 65.3227 171.862 68.8515 173.047C69.1376 173.142 69.426 173.231 69.7166 173.313C69.6222 173.684 69.5384 174.059 69.4653 174.435C68.7961 177.898 69.3187 180.648 70.9821 181.59C72.7001 182.564 75.5836 181.563 78.3912 179.152C78.6188 178.956 78.8415 178.754 79.0589 178.547C79.3399 178.814 79.6283 179.072 79.9239 179.323C82.6437 181.622 85.3296 182.55 86.9914 181.605C88.7078 180.629 89.2656 177.675 88.5414 174.081C88.4843 173.8 88.4203 173.519 88.3495 173.241C88.552 173.182 88.7507 173.121 88.9445 173.058C92.613 171.864 94.9998 169.934 94.9998 167.959C94.9998 166.066 92.7664 164.235 89.3102 163.066ZM88.5146 171.783C88.3396 171.84 88.1601 171.895 87.9771 171.949C87.5721 170.689 87.0256 169.35 86.3568 167.966C86.995 166.615 87.5205 165.293 87.9141 164.041C88.2415 164.134 88.5591 164.232 88.8654 164.336C91.8266 165.338 93.6329 166.818 93.6329 167.959C93.6329 169.175 91.6821 170.752 88.5146 171.783ZM87.2004 174.342C87.5206 175.931 87.5663 177.368 87.3541 178.491C87.1636 179.501 86.7804 180.173 86.3064 180.443C85.298 181.017 83.1414 180.271 80.8155 178.305C80.5406 178.072 80.2723 177.831 80.0109 177.584C80.9127 176.615 81.8138 175.489 82.6933 174.238C84.2403 174.103 85.7018 173.882 87.0271 173.581C87.091 173.834 87.1487 174.087 87.2004 174.342ZM73.9094 180.344C72.9242 180.686 72.1395 180.696 71.6651 180.427C70.6557 179.855 70.2361 177.647 70.8085 174.685C70.8765 174.335 70.9544 173.987 71.0421 173.642C72.3528 173.927 73.8037 174.131 75.3543 174.255C76.2398 175.479 77.1669 176.604 78.1013 177.589C77.9027 177.778 77.6995 177.962 77.4917 178.141C76.2501 179.207 75.0059 179.963 73.9094 180.344ZM69.2937 171.776C67.7334 171.252 66.4447 170.571 65.5615 169.828C64.7677 169.16 64.3671 168.497 64.3671 167.959C64.3671 166.814 66.1042 165.354 69.0016 164.362C69.3532 164.241 69.7212 164.128 70.1031 164.021C70.5036 165.301 71.0288 166.639 71.6627 167.992C71.0206 169.365 70.4878 170.724 70.0835 172.019C69.8182 171.944 69.5549 171.863 69.2937 171.776ZM70.841 161.428C70.2396 158.409 70.639 156.131 71.6441 155.559C72.7146 154.951 75.0818 155.819 77.5769 157.995C77.7396 158.138 77.8997 158.283 78.0571 158.431C77.1273 159.411 76.2087 160.528 75.3311 161.745C73.8261 161.882 72.3855 162.102 71.061 162.397C70.9794 162.076 70.906 161.753 70.841 161.428ZM84.6443 164.777C84.3314 164.246 84.007 163.722 83.6711 163.205C84.6921 163.331 85.6704 163.5 86.589 163.706C86.3133 164.574 85.9695 165.482 85.5649 166.413C85.2691 165.862 84.9622 165.316 84.6443 164.777ZM79.0153 159.39C79.6458 160.062 80.2773 160.811 80.8984 161.624C79.6384 161.565 78.3763 161.565 77.1163 161.623C77.7381 160.818 78.3749 160.069 79.0153 159.39ZM73.3502 164.786C73.0362 165.321 72.735 165.863 72.4468 166.412C72.0488 165.484 71.7082 164.572 71.4301 163.691C72.3431 163.491 73.3167 163.327 74.3312 163.202C73.9916 163.722 73.6645 164.251 73.3502 164.786ZM74.3603 172.812C73.3122 172.697 72.324 172.541 71.4112 172.346C71.6937 171.45 72.0418 170.518 72.4485 169.571C72.7378 170.12 73.0403 170.662 73.3556 171.197C73.6798 171.747 74.0156 172.286 74.3603 172.812ZM79.053 176.623C78.4051 175.936 77.7588 175.176 77.1277 174.359C77.7404 174.382 78.3651 174.394 78.9999 174.394C79.6522 174.394 80.2969 174.38 80.9315 174.352C80.3084 175.184 79.6793 175.945 79.053 176.623ZM85.5778 169.522C86.0055 170.48 86.366 171.407 86.6523 172.288C85.7245 172.496 84.7228 172.663 83.6673 172.788C84.0055 172.261 84.333 171.728 84.6496 171.188C84.9716 170.64 85.281 170.084 85.5778 169.522ZM83.4655 170.517C82.9808 171.344 82.4688 172.156 81.9304 172.95C80.9551 173.018 79.9777 173.052 78.9999 173.052C78.0041 173.052 77.0354 173.021 76.1027 172.962C75.5502 172.169 75.0285 171.356 74.5386 170.524C74.051 169.697 73.5956 168.852 73.1733 167.991C73.5946 167.13 74.0486 166.285 74.5346 165.457C75.0203 164.629 75.5378 163.82 76.0861 163.03C77.0377 162.959 78.0136 162.923 78.9998 162.923C79.9905 162.923 80.9678 162.96 81.9192 163.031C82.4619 163.819 82.9762 164.626 83.461 165.45C83.9486 166.276 84.4086 167.117 84.8405 167.972C84.4131 168.836 83.9545 169.685 83.4655 170.517ZM86.2855 155.519C87.357 156.127 87.7738 158.575 87.1005 161.786C87.0575 161.991 87.0093 162.199 86.9568 162.411C85.629 162.11 84.1874 161.886 82.678 161.747C81.7988 160.516 80.8877 159.398 79.973 158.43C80.2127 158.203 80.4582 157.982 80.709 157.767C83.0715 155.747 85.2795 154.949 86.2855 155.519ZM78.9999 165.152C80.578 165.152 81.8574 166.409 81.8574 167.959C81.8574 169.51 80.578 170.767 78.9999 170.767C77.4218 170.767 76.1424 169.51 76.1424 167.959C76.1424 166.409 77.4218 165.152 78.9999 165.152Z" fill="#00D8FF"/>
</g>
<g opacity="0.98" clip-path="url(#clip1_407_108)">
<path d="M139.048 98.2349C138.612 98.401 138.13 98.4016 137.694 98.2367C137.257 98.0719 136.896 97.7528 136.678 97.3399L132.353 91.3852L131.726 90.5527L126.737 97.3682C126.534 97.7646 126.193 98.0736 125.779 98.2374C125.365 98.4011 124.905 98.4084 124.486 98.2579L130.915 89.5944L124.902 81.7932C125.333 81.6369 125.804 81.6339 126.237 81.7846C126.67 81.9353 127.038 82.2306 127.278 82.6207L131.761 88.6489L136.243 82.627C136.448 82.2376 136.788 81.9369 137.2 81.782C137.612 81.6272 138.066 81.6291 138.477 81.7873L136.156 84.8809L133.012 88.9913C132.924 89.0696 132.854 89.1654 132.807 89.2726C132.759 89.3797 132.734 89.4958 132.735 89.6131C132.735 89.7304 132.76 89.8464 132.808 89.9533C132.856 90.0603 132.927 90.1559 133.014 90.2338L139.036 98.2362L139.048 98.2349ZM109.033 89.5326L109.552 86.9378C110.984 81.806 116.86 79.66 120.911 82.8265C123.284 84.6828 123.881 87.3166 123.771 90.2868L110.427 90.3147C110.222 95.6189 114.056 98.8134 118.946 97.1669C119.739 96.8797 120.448 96.4003 121.01 95.7718C121.572 95.1432 121.969 94.385 122.166 93.5652C122.423 92.7322 122.849 92.5888 123.632 92.8271C123.504 93.8429 123.147 94.8163 122.588 95.6742C122.029 96.5321 121.283 97.2521 120.406 97.7801C118.957 98.5767 117.293 98.8947 115.653 98.6887C114.012 98.4826 112.478 97.7631 111.271 96.633C110.077 95.2947 109.354 93.6026 109.211 91.8148C109.211 91.521 109.11 91.2462 109.042 90.9826C109.035 90.4997 109.031 90.0168 109.03 89.5339L109.033 89.5326ZM110.441 89.1722L122.508 89.147C122.425 85.3021 119.993 82.5797 116.757 82.5615C113.154 82.519 110.582 85.1919 110.432 89.1547L110.441 89.1722Z" fill="white"/>
</g>
<g opacity="0.98">
<path d="M257.74 152.4C258.49 151.976 259.446 151.974 260.178 152.4L271.375 158.712C272.075 159.106 272.544 159.887 272.537 160.694V173.351C272.542 174.192 272.027 174.989 271.289 175.376L260.151 181.659C259.77 181.869 259.34 181.974 258.905 181.962C258.47 181.95 258.046 181.822 257.677 181.59L254.335 179.659C254.107 179.523 253.851 179.415 253.69 179.195C253.832 179.004 254.086 178.979 254.292 178.895C254.757 178.747 255.182 178.52 255.61 178.28C255.718 178.205 255.85 178.233 255.953 178.301L258.803 179.949C259.007 180.066 259.213 179.911 259.387 179.813L270.323 173.641C270.458 173.576 270.533 173.433 270.522 173.285V160.751C270.537 160.582 270.44 160.428 270.288 160.36L259.178 154.104C259.114 154.059 259.038 154.036 258.96 154.035C258.882 154.035 258.806 154.059 258.742 154.103L247.649 160.372C247.499 160.44 247.396 160.592 247.414 160.761V173.295C247.401 173.443 247.48 173.583 247.616 173.647L250.58 175.32C251.137 175.62 251.821 175.789 252.434 175.569C252.702 175.468 252.933 175.287 253.096 175.051C253.258 174.815 253.345 174.534 253.344 174.248L253.347 161.788C253.334 161.604 253.508 161.451 253.687 161.47H255.112C255.3 161.465 255.447 161.664 255.422 161.849L255.419 174.387C255.42 175.501 254.962 176.712 253.932 177.259C252.662 177.915 251.093 177.777 249.839 177.147L246.651 175.384C245.901 175.009 245.398 174.199 245.402 173.359V160.703C245.406 160.291 245.519 159.888 245.73 159.535C245.941 159.183 246.243 158.893 246.604 158.696L257.74 152.4ZM260.969 161.173C262.588 161.08 264.321 161.112 265.778 161.909C266.906 162.521 267.531 163.803 267.552 165.057C267.52 165.226 267.344 165.32 267.182 165.308C266.714 165.307 266.243 165.314 265.772 165.305C265.573 165.312 265.457 165.129 265.432 164.952C265.297 164.352 264.97 163.759 264.406 163.469C263.539 163.035 262.534 163.057 261.589 163.066C260.899 163.104 260.158 163.163 259.574 163.568C259.124 163.875 258.989 164.505 259.149 164.995C259.299 165.354 259.714 165.469 260.053 165.576C262.005 166.086 264.072 166.045 265.987 166.707C266.779 166.981 267.555 167.514 267.827 168.343C268.181 169.455 268.026 170.785 267.236 171.677C266.595 172.412 265.661 172.802 264.728 173.029C263.488 173.306 262.202 173.312 260.942 173.188C259.758 173.053 258.527 172.742 257.612 171.936C256.831 171.257 256.45 170.2 256.487 169.18C256.497 169.007 256.668 168.887 256.834 168.901H258.241C258.43 168.888 258.569 169.051 258.578 169.229C258.665 169.792 258.88 170.401 259.379 170.729C260.341 171.35 261.547 171.307 262.648 171.325C263.56 171.284 264.584 171.272 265.329 170.668C265.723 170.324 265.838 169.75 265.732 169.255C265.617 168.837 265.17 168.642 264.795 168.505C262.868 167.895 260.777 168.117 258.87 167.427C258.095 167.153 257.346 166.635 257.049 165.839C256.634 164.714 256.824 163.32 257.699 162.458C258.542 161.6 259.78 161.269 260.952 161.151L260.969 161.173Z" fill="#8CC84B"/>
</g>
<g opacity="0.98" clip-path="url(#clip2_407_108)">
<path d="M230.983 81.7868C230.994 81.8268 231 81.868 231 81.9094V88.3489C231 88.5171 230.907 88.6725 230.757 88.7562L225.193 91.8679V98.0356C225.193 98.2034 225.101 98.3584 224.952 98.4429L213.337 104.937C213.311 104.952 213.282 104.962 213.253 104.972C213.242 104.975 213.232 104.981 213.22 104.984C213.139 105.005 213.054 105.005 212.972 104.984C212.959 104.981 212.947 104.974 212.934 104.969C212.908 104.96 212.88 104.952 212.855 104.937L201.243 98.4429C201.093 98.3591 201 98.2038 201 98.0356V78.7173C201 78.6751 201.006 78.634 201.017 78.5941C201.021 78.5806 201.029 78.5683 201.034 78.5548C201.043 78.5301 201.051 78.5049 201.065 78.482C201.074 78.4667 201.087 78.4544 201.098 78.4403C201.112 78.4215 201.124 78.4022 201.141 78.3857C201.155 78.3722 201.173 78.3622 201.189 78.3505C201.206 78.3364 201.222 78.3212 201.242 78.31H201.242L207.048 75.0627C207.198 74.9791 207.382 74.9791 207.532 75.0627L213.338 78.31H213.339C213.359 78.3218 213.375 78.3364 213.392 78.3499C213.408 78.3617 213.426 78.3722 213.439 78.3851C213.456 78.4022 213.468 78.4215 213.483 78.4403C213.493 78.4544 213.507 78.4667 213.516 78.482C213.53 78.5055 213.537 78.5301 213.547 78.5548C213.552 78.5683 213.56 78.5806 213.564 78.5947C213.575 78.6347 213.581 78.6759 213.581 78.7173V90.7833L218.419 88.0771V81.9089C218.419 81.8678 218.425 81.8261 218.436 81.7868C218.44 81.7727 218.448 81.7604 218.453 81.7469C218.463 81.7222 218.471 81.697 218.484 81.6741C218.493 81.6588 218.507 81.6465 218.517 81.6324C218.532 81.6137 218.544 81.5943 218.561 81.5779C218.574 81.5644 218.592 81.5544 218.608 81.5426C218.626 81.5286 218.641 81.5133 218.661 81.5021H218.661L224.468 78.2548C224.618 78.1711 224.802 78.1711 224.952 78.2548L230.758 81.5021C230.778 81.5139 230.794 81.5286 230.812 81.5421C230.827 81.5538 230.845 81.5644 230.859 81.5773C230.876 81.5943 230.888 81.6137 230.902 81.6324C230.913 81.6465 230.926 81.6588 230.935 81.6741C230.949 81.697 230.956 81.7222 230.966 81.7469C230.972 81.7604 230.979 81.7727 230.983 81.7868ZM230.032 88.0771V82.7223L228 83.8585L225.193 85.4285V90.7833L230.033 88.0771H230.032ZM224.226 97.7638V92.4055L221.465 93.9373L213.58 98.3085V103.717L224.226 97.7638ZM201.968 79.5302V97.7638L212.612 103.717V98.3091L207.051 95.2519L207.05 95.2508L207.047 95.2496C207.029 95.239 207.013 95.2238 206.995 95.2109C206.98 95.1991 206.963 95.1897 206.949 95.1768L206.948 95.1751C206.932 95.1604 206.922 95.1422 206.908 95.1258C206.896 95.1099 206.882 95.0964 206.872 95.08L206.871 95.0782C206.861 95.0606 206.854 95.0395 206.846 95.0195C206.838 95.0019 206.828 94.9855 206.823 94.9667V94.9661C206.817 94.9438 206.816 94.9203 206.813 94.8975C206.811 94.8798 206.806 94.8622 206.806 94.8446V94.8435V82.2363L204 80.6658L201.968 79.5308V79.5302ZM207.291 76.0123L202.453 78.7173L207.29 81.4223L212.127 78.7167L207.29 76.0123H207.291ZM209.807 92.8938L212.613 91.3244V79.5302L210.581 80.6664L207.774 82.2363V94.0306L209.807 92.8938ZM224.71 79.2044L219.873 81.9094L224.71 84.6144L229.546 81.9089L224.71 79.2044ZM224.226 85.4285L221.419 83.8585L219.387 82.7223V88.0771L222.193 89.6465L224.226 90.7833V85.4285ZM213.096 97.4956L220.191 93.5611L223.737 91.595L218.904 88.8917L213.339 92.0041L208.266 94.8405L213.096 97.4956Z" fill="#FF2D20"/>
</g>
<g opacity="0.98" clip-path="url(#clip3_407_108)">
<path d="M182.826 167.58L175.68 160.434C175.458 160.211 175.065 160.211 174.843 160.434L173.293 161.983C173.062 162.214 173.062 162.589 173.293 162.821L178.472 167.998L173.294 173.177C173.062 173.408 173.062 173.783 173.294 174.015L174.843 175.564C174.954 175.675 175.105 175.738 175.262 175.738C175.419 175.738 175.57 175.675 175.681 175.564L182.826 168.418C183.058 168.186 183.058 167.811 182.826 167.58Z" fill="white"/>
<path d="M164.706 173.177L159.529 167.999L164.707 162.821C164.818 162.71 164.88 162.56 164.88 162.402C164.88 162.245 164.818 162.094 164.707 161.983L163.158 160.434C163.046 160.323 162.896 160.26 162.739 160.26C162.582 160.26 162.431 160.323 162.32 160.434L155.173 167.58C154.942 167.811 154.942 168.186 155.173 168.418L162.319 175.564C162.43 175.675 162.581 175.737 162.738 175.737C162.895 175.737 163.046 175.675 163.157 175.564L164.707 174.014C164.938 173.783 164.938 173.408 164.706 173.177Z" fill="white"/>
<path d="M173.064 158.029C172.988 157.891 172.861 157.789 172.711 157.744L171.455 157.374C171.142 157.281 170.811 157.461 170.719 157.774L164.888 177.52C164.844 177.67 164.861 177.832 164.936 177.97C165.011 178.109 165.138 178.211 165.289 178.256L166.545 178.626C166.601 178.643 166.657 178.651 166.713 178.651C166.968 178.651 167.205 178.484 167.281 178.226L173.111 158.48C173.156 158.329 173.139 158.167 173.064 158.029Z" fill="white"/>
</g>
<g opacity="0.98" clip-path="url(#clip4_407_108)">
<path d="M226.938 232H205.062C203.371 232 202 233.371 202 235.062V256.938C202 258.629 203.371 260 205.062 260H226.938C228.629 260 230 258.629 230 256.938V235.062C230 233.371 228.629 232 226.938 232Z" fill="#092E20"/>
<path d="M222.385 242.303V249.546C222.385 252.042 222.202 253.239 221.655 254.274C221.147 255.269 220.478 255.897 219.098 256.587L216.196 255.208C217.576 254.558 218.246 253.99 218.672 253.118C219.118 252.225 219.26 251.19 219.26 248.471V242.303H222.385ZM217.414 237.477V251.941C215.811 252.245 214.634 252.367 213.356 252.367C209.541 252.367 207.553 250.642 207.553 247.335C207.553 244.149 209.663 242.08 212.93 242.08C213.437 242.08 213.823 242.12 214.289 242.242V237.477H217.414ZM213.234 244.596C211.652 244.596 210.738 245.57 210.738 247.274C210.738 248.938 211.611 249.851 213.214 249.851C213.559 249.851 213.843 249.831 214.289 249.77V244.758C213.924 244.636 213.62 244.596 213.234 244.596ZM222.385 237.494V240.7H219.26V237.494H222.385Z" fill="#FFFFFD"/>
</g>
<g opacity="0.98" clip-path="url(#clip5_407_108)">
<path d="M133.8 232H114.2C111.88 232 110 233.88 110 236.2V255.8C110 258.12 111.88 260 114.2 260H133.8C136.12 260 138 258.12 138 255.8V236.2C138 233.88 136.12 232 133.8 232Z" fill="#3178C6"/>
<path d="M122.742 247.531H126.242V245.289H116.453V247.531H119.953V257.539H122.742V247.531ZM127.336 256.992C127.779 257.222 128.32 257.391 128.922 257.506C129.523 257.621 130.18 257.676 130.836 257.676C131.492 257.676 132.094 257.616 132.695 257.49C133.297 257.364 133.789 257.156 134.227 256.888C134.67 256.598 135.047 256.232 135.266 255.74C135.484 255.248 135.654 254.701 135.654 253.99C135.654 253.492 135.577 253.06 135.43 252.677C135.282 252.295 135.069 251.966 134.773 251.693C134.495 251.403 134.172 251.146 133.789 250.927C133.406 250.709 132.969 250.479 132.477 250.271C132.116 250.123 131.82 249.981 131.492 249.839C131.208 249.697 130.962 249.555 130.781 249.412C130.579 249.265 130.426 249.112 130.316 248.953C130.207 248.789 130.152 248.609 130.152 248.406C130.152 248.22 130.201 248.051 130.3 247.898C130.399 247.745 130.535 247.619 130.71 247.509C130.885 247.4 131.104 247.318 131.366 247.258C131.623 247.198 131.908 247.17 132.241 247.17C132.471 247.17 132.712 247.187 132.952 247.222C133.204 247.256 133.461 247.309 133.718 247.38C133.975 247.451 134.227 247.539 134.484 247.648C134.724 247.758 134.948 247.883 135.14 248.026V245.455C134.724 245.297 134.265 245.176 133.773 245.1C133.28 245.023 132.734 244.985 132.077 244.985C131.421 244.985 130.82 245.056 130.218 245.193C129.616 245.33 129.124 245.548 128.687 245.849C128.244 246.144 127.921 246.505 127.648 246.997C127.391 247.457 127.265 247.982 127.265 248.638C127.265 249.458 127.5 250.169 127.976 250.716C128.446 251.318 129.179 251.755 130.109 252.193C130.486 252.346 130.82 252.499 131.148 252.647C131.476 252.794 131.749 252.947 131.968 253.106C132.203 253.265 132.389 253.44 132.515 253.626C132.652 253.812 132.723 254.03 132.723 254.282C132.723 254.457 132.68 254.621 132.597 254.774C132.514 254.927 132.384 255.058 132.209 255.168C132.034 255.277 131.82 255.365 131.552 255.43C131.295 255.49 131.005 255.523 130.623 255.523C130.021 255.523 129.42 255.419 128.873 255.212C128.271 255.004 127.724 254.692 127.336 254.367V256.992Z" fill="white"/>
</g>
<g opacity="0.16" filter="url(#filter2_d_407_108)">
<path opacity="0.05" d="M316 284.5C311.429 261.472 301.525 241.225 287.968 224.327C221.699 144.747 65.6498 143.675 22.9999 284.5C67.0258 139.131 221.458 141.428 287.968 224.327C301.932 241.097 311.91 261.352 316 284.5Z" fill="url(#paint1_linear_407_108)"/>
<path opacity="0.05" d="M316 51C311.429 74.0278 301.525 94.2746 287.968 111.172C221.699 190.753 65.6498 191.825 22.9999 51C67.0258 196.368 221.458 194.072 287.968 111.172C301.932 94.4033 311.91 74.1481 316 51Z" fill="url(#paint2_linear_407_108)"/>
<g filter="url(#filter3_d_407_108)">
<circle cx="169" cy="168" r="29" fill="url(#paint3_linear_407_108)"/>
<circle cx="169" cy="168" r="28.5" stroke="white" stroke-opacity="0.73"/>
</g>
<circle cx="214" cy="90" r="29" fill="url(#paint4_linear_407_108)"/>
<circle cx="214" cy="90" r="28.5" stroke="white" stroke-opacity="0.14"/>
<g filter="url(#filter4_i_407_108)">
<circle cx="169" cy="168" r="25" fill="url(#paint5_linear_407_108)"/>
</g>
<circle cx="124" cy="90" r="29" fill="url(#paint6_linear_407_108)"/>
<circle cx="124" cy="90" r="28.5" stroke="white" stroke-opacity="0.14"/>
<circle cx="214" cy="246" r="29" fill="url(#paint7_linear_407_108)"/>
<circle cx="214" cy="246" r="28.5" stroke="white" stroke-opacity="0.14"/>
<circle cx="124" cy="246" r="29" fill="url(#paint8_linear_407_108)"/>
<circle cx="124" cy="246" r="28.5" stroke="white" stroke-opacity="0.14"/>
<circle cx="79" cy="168" r="29" fill="url(#paint9_linear_407_108)"/>
<circle cx="79" cy="168" r="28.5" stroke="white" stroke-opacity="0.14"/>
<circle cx="259" cy="168" r="29" fill="url(#paint10_linear_407_108)"/>
<circle cx="259" cy="168" r="28.5" stroke="white" stroke-opacity="0.14"/>
</g>
<defs>
<filter id="filter0_d_407_108" x="128" y="139" width="72" height="94" filterUnits="userSpaceOnUse" color-interpolation-filters="sRGB">
<feFlood flood-opacity="0" result="BackgroundImageFix"/>
<feColorMatrix in="SourceAlpha" type="matrix" values="0 0 0 0 0 0 0 0 0 0 0 0 0 0 0 0 0 0 127 0" result="hardAlpha"/>
<feMorphology radius="3" operator="erode" in="SourceAlpha" result="effect1_dropShadow_407_108"/>
<feOffset dx="-5" dy="29"/>
<feGaussianBlur stdDeviation="5"/>
<feComposite in2="hardAlpha" operator="out"/>
<feColorMatrix type="matrix" values="0 0 0 0 0 0 0 0 0 0 0 0 0 0 0 0 0 0 0.25 0"/>
<feBlend mode="normal" in2="BackgroundImageFix" result="effect1_dropShadow_407_108"/>
<feBlend mode="normal" in="SourceGraphic" in2="effect1_dropShadow_407_108" result="shape"/>
</filter>
<filter id="filter1_i_407_108" x="144" y="143" width="50" height="50" filterUnits="userSpaceOnUse" color-interpolation-filters="sRGB">
<feFlood flood-opacity="0" result="BackgroundImageFix"/>
<feBlend mode="normal" in="SourceGraphic" in2="BackgroundImageFix" result="shape"/>
<feColorMatrix in="SourceAlpha" type="matrix" values="0 0 0 0 0 0 0 0 0 0 0 0 0 0 0 0 0 0 127 0" result="hardAlpha"/>
<feMorphology radius="1" operator="erode" in="SourceAlpha" result="effect1_innerShadow_407_108"/>
<feOffset/>
<feGaussianBlur stdDeviation="2.9"/>
<feComposite in2="hardAlpha" operator="arithmetic" k2="-1" k3="1"/>
<feColorMatrix type="matrix" values="0 0 0 0 1 0 0 0 0 1 0 0 0 0 1 0 0 0 0.25 0"/>
<feBlend mode="normal" in2="shape" result="effect1_innerShadow_407_108"/>
</filter>
<filter id="filter2_d_407_108" x="18.9999" y="51" width="301" height="241.5" filterUnits="userSpaceOnUse" color-interpolation-filters="sRGB">
<feFlood flood-opacity="0" result="BackgroundImageFix"/>
<feColorMatrix in="SourceAlpha" type="matrix" values="0 0 0 0 0 0 0 0 0 0 0 0 0 0 0 0 0 0 127 0" result="hardAlpha"/>
<feOffset dy="4"/>
<feGaussianBlur stdDeviation="2"/>
<feComposite in2="hardAlpha" operator="out"/>
<feColorMatrix type="matrix" values="0 0 0 0 0 0 0 0 0 0 0 0 0 0 0 0 0 0 0.25 0"/>
<feBlend mode="normal" in2="BackgroundImageFix" result="effect1_dropShadow_407_108"/>
<feBlend mode="normal" in="SourceGraphic" in2="effect1_dropShadow_407_108" result="shape"/>
</filter>
<filter id="filter3_d_407_108" x="133.5" y="139" width="64.5" height="75.5" filterUnits="userSpaceOnUse" color-interpolation-filters="sRGB">
<feFlood flood-opacity="0" result="BackgroundImageFix"/>
<feColorMatrix in="SourceAlpha" type="matrix" values="0 0 0 0 0 0 0 0 0 0 0 0 0 0 0 0 0 0 127 0" result="hardAlpha"/>
<feMorphology radius="3" operator="erode" in="SourceAlpha" result="effect1_dropShadow_407_108"/>
<feOffset dx="-5" dy="16"/>
<feGaussianBlur stdDeviation="2.25"/>
<feComposite in2="hardAlpha" operator="out"/>
<feColorMatrix type="matrix" values="0 0 0 0 0 0 0 0 0 0 0 0 0 0 0 0 0 0 1 0"/>
<feBlend mode="normal" in2="BackgroundImageFix" result="effect1_dropShadow_407_108"/>
<feBlend mode="normal" in="SourceGraphic" in2="effect1_dropShadow_407_108" result="shape"/>
</filter>
<filter id="filter4_i_407_108" x="144" y="143" width="50" height="50" filterUnits="userSpaceOnUse" color-interpolation-filters="sRGB">
<feFlood flood-opacity="0" result="BackgroundImageFix"/>
<feBlend mode="normal" in="SourceGraphic" in2="BackgroundImageFix" result="shape"/>
<feColorMatrix in="SourceAlpha" type="matrix" values="0 0 0 0 0 0 0 0 0 0 0 0 0 0 0 0 0 0 127 0" result="hardAlpha"/>
<feMorphology radius="1" operator="erode" in="SourceAlpha" result="effect1_innerShadow_407_108"/>
<feOffset/>
<feGaussianBlur stdDeviation="2.9"/>
<feComposite in2="hardAlpha" operator="arithmetic" k2="-1" k3="1"/>
<feColorMatrix type="matrix" values="0 0 0 0 1 0 0 0 0 1 0 0 0 0 1 0 0 0 0.25 0"/>
<feBlend mode="normal" in2="shape" result="effect1_innerShadow_407_108"/>
</filter>
<linearGradient id="paint0_linear_407_108" x1="169" y1="-132" x2="169" y2="168" gradientUnits="userSpaceOnUse">
<stop stop-color="#E0E0E0" stop-opacity="0"/>
<stop offset="0.542797" stop-color="#A9A9A9" stop-opacity="0"/>
<stop offset="0.745099" stop-color="#949494" stop-opacity="0.18"/>
<stop offset="1" stop-color="#7A7A7A"/>
</linearGradient>
<linearGradient id="paint1_linear_407_108" x1="246" y1="171.431" x2="225.156" y2="293.967" gradientUnits="userSpaceOnUse">
<stop stop-color="#9A9A9A"/>
<stop offset="1" stop-color="#343434"/>
</linearGradient>
<linearGradient id="paint2_linear_407_108" x1="246" y1="164.069" x2="225.156" y2="41.5327" gradientUnits="userSpaceOnUse">
<stop stop-color="#9A9A9A"/>
<stop offset="1" stop-color="#343434"/>
</linearGradient>
<linearGradient id="paint3_linear_407_108" x1="184.143" y1="140.987" x2="161.634" y2="193.864" gradientUnits="userSpaceOnUse">
<stop stop-color="#9A9A9A"/>
<stop offset="1" stop-color="#343434"/>
</linearGradient>
<linearGradient id="paint4_linear_407_108" x1="229.143" y1="62.9872" x2="206.634" y2="115.864" gradientUnits="userSpaceOnUse">
<stop stop-color="#9A9A9A"/>
<stop offset="1" stop-color="#343434"/>
</linearGradient>
<linearGradient id="paint5_linear_407_108" x1="182.055" y1="144.713" x2="162.65" y2="190.297" gradientUnits="userSpaceOnUse">
<stop stop-color="#9A9A9A"/>
<stop offset="1" stop-color="#343434"/>
</linearGradient>
<linearGradient id="paint6_linear_407_108" x1="139.143" y1="62.9872" x2="116.634" y2="115.864" gradientUnits="userSpaceOnUse">
<stop stop-color="#9A9A9A"/>
<stop offset="1" stop-color="#343434"/>
</linearGradient>
<linearGradient id="paint7_linear_407_108" x1="229.143" y1="218.987" x2="206.634" y2="271.864" gradientUnits="userSpaceOnUse">
<stop stop-color="#9A9A9A"/>
<stop offset="1" stop-color="#343434"/>
</linearGradient>
<linearGradient id="paint8_linear_407_108" x1="139.143" y1="218.987" x2="116.634" y2="271.864" gradientUnits="userSpaceOnUse">
<stop stop-color="#9A9A9A"/>
<stop offset="1" stop-color="#343434"/>
</linearGradient>
<linearGradient id="paint9_linear_407_108" x1="94.1434" y1="140.987" x2="71.6339" y2="193.864" gradientUnits="userSpaceOnUse">
<stop stop-color="#9A9A9A"/>
<stop offset="1" stop-color="#343434"/>
</linearGradient>
<linearGradient id="paint10_linear_407_108" x1="274.143" y1="140.987" x2="251.634" y2="193.864" gradientUnits="userSpaceOnUse">
<stop stop-color="#9A9A9A"/>
<stop offset="1" stop-color="#343434"/>
</linearGradient>
<clipPath id="clip0_407_108">
<rect width="32" height="28" fill="white" transform="translate(63 154)"/>
</clipPath>
<clipPath id="clip1_407_108">
<rect width="30" height="30" fill="white" transform="translate(109 75.0626) rotate(-0.119712)"/>
</clipPath>
<clipPath id="clip2_407_108">
<rect width="30" height="30" fill="white" transform="translate(201 75)"/>
</clipPath>
<clipPath id="clip3_407_108">
<rect width="28" height="28" fill="white" transform="translate(155 154)"/>
</clipPath>
<clipPath id="clip4_407_108">
<rect width="28" height="28" fill="white" transform="translate(202 232)"/>
</clipPath>
<clipPath id="clip5_407_108">
<rect width="28" height="28" fill="white" transform="translate(110 232)"/>
</clipPath>
</defs>
</svg>
